MoBL_ARMS_module2_4_allmuscles elbow_states	
version=1	
nRows=378	
nColumns=2	
inDegrees=yes	
	
# SIMM Motion File Header:	
name MoBL_ARMS_module2_4_allmuscles elbow_states	
datacolumns 2	
datarows 378	
otherdata 1	
range 0 0.821127864	
endheader	
time	elbow_flexion
0	15.00000017
0.001105996	15.00015573
0.00295265	15.0011873
0.004799304	15.00322484
0.007429532	15.00782452
0.011067647	15.01750718
0.016662644	15.04003412
0.021256663	15.06546301
0.025850683	15.09710465
0.029874709	15.12982975
0.033898735	15.16716114
0.035232823	15.18053198
0.037099851	15.20006036
0.041204141	15.2462408
0.042595884	15.26288218
0.044644551	15.2882522
0.048817283	15.34304793
0.050265756	15.36302086
0.052457923	15.39415108
0.056771532	15.45845355
0.058820165	15.49033088
0.060868798	15.52301985
0.062917431	15.55648703
0.064966065	15.59070318
0.067494126	15.63392384
0.069291081	15.66529662
0.071088036	15.69719892
0.073760577	15.74560672
0.076115667	15.78919634
0.078023786	15.82513753
0.079931904	15.86162588
0.082305281	15.90776168
0.084678657	15.95471771
0.086456851	15.99043033
0.088235044	16.02659541
0.090841988	16.08042769
0.093248643	16.13097475
0.095129222	16.17104283
0.097009801	16.21162105
0.099450738	16.26507416
0.101891676	16.31944216
0.10356162	16.35717983
0.105231565	16.39536736
0.108114626	16.4623744
0.110770829	16.52535448
0.112426052	16.56523451
0.11448597	16.6155805
0.117466436	16.68990638
0.119281491	16.73606887
0.121096545	16.78293352
0.123592877	16.84855599
0.125665168	16.90407292
0.127737459	16.96054916
0.130233579	17.0298761
0.132189917	17.08523187
0.134146256	17.14151238
0.136102594	17.19874271
0.138633853	17.27423731
0.140727871	17.33794632
0.142821888	17.40280281
0.144915906	17.46881278
0.147009923	17.53598326
0.149103941	17.60432642
0.151197958	17.67386538
0.153291976	17.7446332
0.155385993	17.81666457
0.157480011	17.88998996
0.159574028	17.96463276
0.161668046	18.04060768
0.163762063	18.11792401
0.165856081	18.19659326
0.167950098	18.27663245
0.170044116	18.35806315
0.172138133	18.44090935
0.174232151	18.52519322
0.176326168	18.61092936
0.178420186	18.69812461
0.180514203	18.78678382
0.182608221	18.87691399
0.184702238	18.96852573
0.186796256	19.06163396
0.188890273	19.15625492
0.190984291	19.25239992
0.193078308	19.35007336
0.195625652	19.47095318
0.197338475	19.55350479
0.199051299	19.63708075
0.201946634	19.78069313
0.204420945	19.90575865
0.20622296	19.99819969
0.208024974	20.09178213
0.210652974	20.23029653
0.212941372	20.35286769
0.214972583	20.46317819
0.217003794	20.57490398
0.219035004	20.68803566
0.221066215	20.80256242
0.22355607	20.94483396
0.225561376	21.06091061
0.227566682	21.17830236
0.229571988	21.29699279
0.231577293	21.41696491
0.234193786	21.57540143
0.235983459	21.6849923
0.237773132	21.79556177
0.240524667	21.96744056
0.2428169	22.11234651
0.244820494	22.2402657
0.246824088	22.36934351
0.248827682	22.49956372
0.251294403	22.66142917
0.253217251	22.78877054
0.255140099	22.91711694
0.257550324	23.07939254
0.259717108	23.22658324
0.261883892	23.37498813
0.264050675	23.52458529
0.265952899	23.656882
0.267855123	23.79006482
0.270139245	23.95113462
0.272423366	24.11343196
0.274423416	24.25653105
0.276423466	24.40053198
0.278423516	24.54541703
0.28089848	24.72590442
0.282819791	24.86691413
0.284741103	25.00869439
0.287157693	25.18809774
0.289323646	25.34989232
0.291489598	25.51261014
0.293655551	25.67623057
0.29556162	25.82094894
0.29746769	25.96633607
0.299373759	26.11237878
0.30212239	26.32410956
0.303973413	26.46743646
0.305824436	26.61135174
0.308527318	26.82254619
0.310733908	26.99587538
0.312940498	27.17001329
0.314839805	27.32053883
0.316739112	27.47164573
0.319127501	27.66247837
0.321515891	27.85421052
0.323375563	28.00411856
0.325235235	28.15456653
0.327649772	28.35070314
0.330064309	28.54773272
0.331943187	28.70165876
0.333822064	28.85610499
0.336208038	29.05296645
0.338594012	29.25062138
0.340480075	29.40740582
0.342366139	29.56465216
0.34474462	29.76358679
0.347123102	29.96320038
0.349008658	30.12190947
0.350894215	30.2810163
0.35327315	30.48230767
0.355652085	30.68419766
0.3575383	30.84468439
0.359424515	31.00552322
0.361803371	31.20885421
0.364182228	31.41270443
0.36606702	31.57457165
0.367951812	31.73674122
0.370332519	31.94199355
0.372713225	32.14768174
0.374598049	32.31081574
0.376482872	32.47418808
0.378863374	32.68084028
0.381243876	32.88781421
0.383128732	33.05190038
0.385013588	33.21615065
0.387394065	33.42379742
0.389774542	33.63164044
0.391659387	33.79632278
0.393544233	33.96108406
0.395924726	34.16925362
0.398305219	34.37747763
0.400190059	34.54235904
0.402074899	34.70723053
0.404455398	34.91541434
0.406835897	35.1235128
0.408720737	35.28819589
0.410605578	35.45278282
0.412986071	35.66048519
0.415366564	35.86796931
0.417251414	36.03207506
0.419136263	36.19600541
0.42151675	36.4027683
0.423897237	36.6092023
0.425777787	36.77204867
0.427658338	36.93470577
0.430049957	37.14133117
0.432441576	37.3477361
0.434319557	37.50968393
0.436197539	37.67153522
0.438572011	37.87605817
0.440946483	38.08048245
0.4428559	38.24483135
0.444765317	38.40918308
0.447116302	38.61160528
0.449467288	38.81417289
0.451355007	38.97698601
0.453242726	39.13998856
0.455622467	39.34580115
0.458002208	39.55202593
0.45988435	39.71545309
0.461766492	39.87919523
0.464150705	40.08712161
0.466534917	40.29569556
0.468418982	40.46104345
0.470303046	40.62691477
0.472682523	40.83722566
0.475062	41.04853292
0.476950031	41.21694816
0.478838063	41.38605185
0.481214548	41.59990829
0.483591034	41.81490511
0.485476398	41.98629211
0.487361762	42.15840989
0.489741922	42.37674386
0.492122082	42.59617598
0.4940066	42.77067339
0.495891118	42.94583157
0.49827106	43.1679888
0.500651001	43.39121021
0.502537558	43.56891359
0.504424115	43.74728695
0.506802447	43.97311015
0.509180778	44.19999354
0.511065904	44.38058229
0.51295103	44.56184451
0.515331343	44.79169573
0.517711656	45.02265352
0.519596326	45.20631636
0.521480996	45.39068797
0.523861769	45.62460621
0.526242542	45.85965699
0.52812729	46.04654157
0.530012039	46.23414548
0.532389641	46.47185229
0.533957565	46.6292603
0.53592592	46.82756787
0.539600646	47.19993098
0.541739774	47.41803005
0.543878902	47.6371529
0.54601803	47.85733796
0.548157158	48.0786328
0.550051791	48.2755998
0.551946423	48.47350504
0.554351731	48.72614634
0.556505103	48.95368621
0.558658475	49.18255171
0.560811847	49.41279133
0.562965219	49.64446518
0.564866183	49.8502267
0.566767146	50.05719878
0.56866811	50.26541932
0.571429117	50.57012769
0.573280689	50.77601362
0.575132261	50.98315877
0.577842992	51.28872895
0.580044457	51.53894353
0.582245922	51.79103221
0.584150583	52.01066943
0.586055244	52.23174685
0.588439596	52.51054691
0.590823947	52.79162671
0.592681613	53.01219697
0.594539279	53.23414447
0.596957278	53.52508746
0.599375277	53.81832626
0.601252676	54.04757133
0.603130074	54.27817181
0.605517729	54.57338373
0.607905383	54.87073721
0.609791655	55.10714346
0.611677926	55.34485039
0.614056021	55.64636222
0.616434116	55.94987387
0.618319634	56.19191303
0.620205151	56.43516245
0.622585026	56.74388346
0.6249649	57.05445577
0.626849645	57.30169873
0.628734389	57.55005332
0.631115063	57.86531031
0.633495736	58.1822567
0.635380498	58.43434658
0.63726526	58.68743948
0.639645845	59.00850787
0.64202643	59.33108662
0.643911272	59.58752943
0.645796113	59.84486525
0.648176453	60.17109136
0.650556793	60.49865844
0.652441903	60.75899533
0.654327014	61.02011914
0.656707176	61.35090281
0.659087337	61.6828528
0.660972217	61.94652525
0.662857096	62.21087952
0.665237573	62.54568606
0.66761805	62.8815144
0.669502863	63.14811915
0.671387676	63.41532678
0.673768216	63.75364867
0.676148757	64.09287397
0.678033584	64.36208324
0.679918412	64.63183137
0.682293945	64.97256673
0.684669477	65.31414209
0.686563064	65.58701114
0.688456652	65.86039494
0.690826508	66.2032486
0.693196365	66.54687133
0.695082296	66.82086219
0.696968228	67.09531673
0.699348242	67.44231897
0.701728256	67.79002003
0.703612324	68.06574704
0.705496391	68.34188484
0.707877931	68.69150346
0.710259471	69.04173437
0.712144112	69.31930874
0.714028753	69.59723877
0.716409423	69.94880778
0.718790093	70.30089912
0.720674985	70.58002066
0.722559876	70.85944108
0.724940296	71.21272627
0.727320715	71.56643765
0.729205573	71.84678699
0.731090432	72.12734482
0.733470013	72.4817849
0.735849595	72.83643868
0.737736013	73.11770611
0.739622432	73.39904233
0.742000811	73.75379286
0.744379189	74.10851611
0.746264537	74.38962031
0.748149884	74.67059021
0.750529832	75.02500159
0.75290978	75.37903445
0.754793964	75.6590045
0.756678149	75.93866516
0.759060439	76.29176163
0.76144273	76.64421096
0.763326425	76.92235618
0.76521012	77.19995678
0.767580883	77.5484692
0.769951646	77.89592476
0.771855947	78.17420547
0.773760248	78.45173128
0.776117635	78.79419024
0.778475023	79.1353627
0.780361596	79.40741278
0.782248169	79.67853919
0.784628891	80.01930481
0.787009612	80.35848481
0.788892164	80.62554115
0.790774715	80.89156068
0.7931555	81.22646729
0.795536286	81.55963233
0.797425362	81.82271099
0.799314438	82.08463029
0.801689481	82.41224896
0.804064524	82.73796556
0.805950059	82.99518387
0.807835593	83.25118901
0.810215842	83.57263056
0.81259609	83.89214375
0.814480146	84.14368355
0.816364202	84.3940083
0.818746033	84.7087204
0.821127864	85.02148914
